<svg xmlns="http://www.w3.org/2000/svg" xmlns:xlink="http://www.w3.org/1999/xlink" width="900" height="2536" viewBox="0 0 900 2536" role="img" aria-label="Theorem dependency graph"><line x1="220" y1="54" x2="220" y2="1458" stroke="#9aa5b8" stroke-width="1.5"/><line x1="220" y1="210" x2="670" y2="288" stroke="#9aa5b8" stroke-width="1.5"/><line x1="220" y1="210" x2="220" y2="522" stroke="#9aa5b8" stroke-width="1.5"/><line x1="220" y1="366" x2="670" y2="288" stroke="#9aa5b8" stroke-width="1.5"/><line x1="670" y1="444" x2="220" y2="210" stroke="#9aa5b8" stroke-width="1.5"/><line x1="220" y1="522" x2="670" y2="288" stroke="#9aa5b8" stroke-width="1.5"/><line x1="220" y1="678" x2="220" y2="210" stroke="#9aa5b8" stroke-width="1.5"/><line x1="220" y1="678" x2="670" y2="444" stroke="#9aa5b8" stroke-width="1.5"/><line x1="670" y1="756" x2="220" y2="210" stroke="#9aa5b8" stroke-width="1.5"/><line x1="670" y1="756" x2="670" y2="444" stroke="#9aa5b8" stroke-width="1.5"/><line x1="220" y1="834" x2="220" y2="210" stroke="#9aa5b8" stroke-width="1.5"/><line x1="220" y1="834" x2="220" y2="366" stroke="#9aa5b8" stroke-width="1.5"/><line x1="220" y1="834" x2="670" y2="912" stroke="#9aa5b8" stroke-width="1.5"/><line x1="670" y1="912" x2="220" y2="366" stroke="#9aa5b8" stroke-width="1.5"/><line x1="220" y1="990" x2="220" y2="54" stroke="#9aa5b8" stroke-width="1.5"/><line x1="220" y1="990" x2="220" y2="210" stroke="#9aa5b8" stroke-width="1.5"/><line x1="220" y1="990" x2="220" y2="834" stroke="#9aa5b8" stroke-width="1.5"/><line x1="220" y1="990" x2="220" y2="1146" stroke="#9aa5b8" stroke-width="1.5"/><line x1="220" y1="990" x2="220" y2="1458" stroke="#9aa5b8" stroke-width="1.5"/><line x1="220" y1="990" x2="670" y2="1536" stroke="#9aa5b8" stroke-width="1.5"/><line x1="220" y1="990" x2="220" y2="1614" stroke="#9aa5b8" stroke-width="1.5"/><line x1="220" y1="990" x2="220" y2="2238" stroke="#9aa5b8" stroke-width="1.5"/><line x1="220" y1="990" x2="670" y2="2316" stroke="#9aa5b8" stroke-width="1.5"/><line x1="670" y1="1068" x2="220" y2="678" stroke="#9aa5b8" stroke-width="1.5"/><line x1="670" y1="1068" x2="670" y2="1224" stroke="#9aa5b8" stroke-width="1.5"/><line x1="670" y1="1068" x2="220" y2="1926" stroke="#9aa5b8" stroke-width="1.5"/><line x1="220" y1="1146" x2="670" y2="132" stroke="#9aa5b8" stroke-width="1.5"/><line x1="220" y1="1146" x2="220" y2="678" stroke="#9aa5b8" stroke-width="1.5"/><line x1="670" y1="1224" x2="220" y2="678" stroke="#9aa5b8" stroke-width="1.5"/><line x1="670" y1="1224" x2="670" y2="1380" stroke="#9aa5b8" stroke-width="1.5"/><line x1="220" y1="1302" x2="220" y2="210" stroke="#9aa5b8" stroke-width="1.5"/><line x1="220" y1="1302" x2="220" y2="678" stroke="#9aa5b8" stroke-width="1.5"/><line x1="220" y1="1302" x2="670" y2="756" stroke="#9aa5b8" stroke-width="1.5"/><line x1="220" y1="1302" x2="220" y2="1614" stroke="#9aa5b8" stroke-width="1.5"/><line x1="220" y1="1302" x2="220" y2="2238" stroke="#9aa5b8" stroke-width="1.5"/><line x1="670" y1="1380" x2="220" y2="210" stroke="#9aa5b8" stroke-width="1.5"/><line x1="670" y1="1380" x2="220" y2="678" stroke="#9aa5b8" stroke-width="1.5"/><line x1="220" y1="1458" x2="670" y2="132" stroke="#9aa5b8" stroke-width="1.5"/><line x1="220" y1="1458" x2="220" y2="678" stroke="#9aa5b8" stroke-width="1.5"/><line x1="670" y1="1536" x2="670" y2="132" stroke="#9aa5b8" stroke-width="1.5"/><line x1="670" y1="1536" x2="670" y2="600" stroke="#9aa5b8" stroke-width="1.5"/><line x1="670" y1="1536" x2="220" y2="678" stroke="#9aa5b8" stroke-width="1.5"/><line x1="220" y1="1614" x2="220" y2="210" stroke="#9aa5b8" stroke-width="1.5"/><line x1="220" y1="1614" x2="220" y2="522" stroke="#9aa5b8" stroke-width="1.5"/><line x1="670" y1="1692" x2="220" y2="678" stroke="#9aa5b8" stroke-width="1.5"/><line x1="670" y1="1692" x2="670" y2="1224" stroke="#9aa5b8" stroke-width="1.5"/><line x1="670" y1="1692" x2="220" y2="1302" stroke="#9aa5b8" stroke-width="1.5"/><line x1="670" y1="1692" x2="670" y2="1380" stroke="#9aa5b8" stroke-width="1.5"/><line x1="670" y1="1692" x2="220" y2="1614" stroke="#9aa5b8" stroke-width="1.5"/><line x1="220" y1="1770" x2="220" y2="210" stroke="#9aa5b8" stroke-width="1.5"/><line x1="220" y1="1770" x2="670" y2="600" stroke="#9aa5b8" stroke-width="1.5"/><line x1="220" y1="1770" x2="670" y2="1692" stroke="#9aa5b8" stroke-width="1.5"/><line x1="220" y1="1770" x2="220" y2="1926" stroke="#9aa5b8" stroke-width="1.5"/><line x1="220" y1="1770" x2="670" y2="2004" stroke="#9aa5b8" stroke-width="1.5"/><line x1="670" y1="1848" x2="670" y2="132" stroke="#9aa5b8" stroke-width="1.5"/><line x1="670" y1="1848" x2="670" y2="1068" stroke="#9aa5b8" stroke-width="1.5"/><line x1="670" y1="1848" x2="670" y2="1224" stroke="#9aa5b8" stroke-width="1.5"/><line x1="670" y1="1848" x2="670" y2="1380" stroke="#9aa5b8" stroke-width="1.5"/><line x1="220" y1="1926" x2="220" y2="678" stroke="#9aa5b8" stroke-width="1.5"/><line x1="670" y1="2004" x2="670" y2="132" stroke="#9aa5b8" stroke-width="1.5"/><line x1="670" y1="2004" x2="220" y2="678" stroke="#9aa5b8" stroke-width="1.5"/><line x1="670" y1="2004" x2="220" y2="1302" stroke="#9aa5b8" stroke-width="1.5"/><line x1="220" y1="2082" x2="220" y2="834" stroke="#9aa5b8" stroke-width="1.5"/><line x1="220" y1="2082" x2="670" y2="912" stroke="#9aa5b8" stroke-width="1.5"/><line x1="670" y1="2160" x2="220" y2="210" stroke="#9aa5b8" stroke-width="1.5"/><line x1="670" y1="2160" x2="670" y2="444" stroke="#9aa5b8" stroke-width="1.5"/><line x1="670" y1="2160" x2="220" y2="522" stroke="#9aa5b8" stroke-width="1.5"/><line x1="670" y1="2160" x2="220" y2="834" stroke="#9aa5b8" stroke-width="1.5"/><line x1="670" y1="2160" x2="220" y2="1614" stroke="#9aa5b8" stroke-width="1.5"/><line x1="220" y1="2238" x2="670" y2="444" stroke="#9aa5b8" stroke-width="1.5"/><line x1="220" y1="2238" x2="220" y2="1614" stroke="#9aa5b8" stroke-width="1.5"/><line x1="670" y1="2316" x2="220" y2="54" stroke="#9aa5b8" stroke-width="1.5"/><line x1="670" y1="2316" x2="670" y2="444" stroke="#9aa5b8" stroke-width="1.5"/><line x1="670" y1="2316" x2="220" y2="522" stroke="#9aa5b8" stroke-width="1.5"/><line x1="220" y1="2394" x2="220" y2="54" stroke="#9aa5b8" stroke-width="1.5"/><line x1="220" y1="2394" x2="670" y2="600" stroke="#9aa5b8" stroke-width="1.5"/><line x1="220" y1="2394" x2="220" y2="990" stroke="#9aa5b8" stroke-width="1.5"/><line x1="220" y1="2394" x2="220" y2="1770" stroke="#9aa5b8" stroke-width="1.5"/><line x1="220" y1="2394" x2="670" y2="1848" stroke="#9aa5b8" stroke-width="1.5"/><line x1="220" y1="2394" x2="220" y2="2082" stroke="#9aa5b8" stroke-width="1.5"/><line x1="670" y1="2472" x2="220" y2="678" stroke="#9aa5b8" stroke-width="1.5"/><line x1="670" y1="2472" x2="220" y2="834" stroke="#9aa5b8" stroke-width="1.5"/><line x1="670" y1="2472" x2="670" y2="1224" stroke="#9aa5b8" stroke-width="1.5"/><line x1="670" y1="2472" x2="220" y2="2394" stroke="#9aa5b8" stroke-width="1.5"/><a href="../../workspace/semantics.qmd#def-canonical-term-model"><g><title>def-canonical-term-model: Canonical term model (local: not-run; global: unverified)</title><rect x="40" y="30" width="360" height="48" rx="8" fill="#fff" stroke="#64748b"/><text x="52" y="50" font-family="sans-serif" font-size="13">def-canonical-term-model</text><text x="52" y="68" font-family="sans-serif" font-size="11" fill="#586174">local not-run; global unverified</text></g></a><a href="../../workspace/calculus.qmd#def-consistency"><g><title>def-consistency: Syntactic consistency and completeness (local: not-run; global: unverified)</title><rect x="490" y="108" width="360" height="48" rx="8" fill="#fff" stroke="#64748b"/><text x="502" y="128" font-family="sans-serif" font-size="13">def-consistency</text><text x="502" y="146" font-family="sans-serif" font-size="11" fill="#586174">local not-run; global unverified</text></g></a><a href="../../workspace/foundations.qmd#def-fol-formulas"><g><title>def-fol-formulas: Formulas and sentences (local: not-run; global: unverified)</title><rect x="40" y="186" width="360" height="48" rx="8" fill="#fff" stroke="#64748b"/><text x="52" y="206" font-family="sans-serif" font-size="13">def-fol-formulas</text><text x="52" y="224" font-family="sans-serif" font-size="11" fill="#586174">local not-run; global unverified</text></g></a><a href="../../workspace/foundations.qmd#def-fol-signature"><g><title>def-fol-signature: First-order signature (local: not-run; global: unverified)</title><rect x="490" y="264" width="360" height="48" rx="8" fill="#fff" stroke="#64748b"/><text x="502" y="284" font-family="sans-serif" font-size="13">def-fol-signature</text><text x="502" y="302" font-family="sans-serif" font-size="11" fill="#586174">local not-run; global unverified</text></g></a><a href="../../workspace/semantics.qmd#def-fol-structure"><g><title>def-fol-structure: Structures and assignments (local: not-run; global: unverified)</title><rect x="40" y="342" width="360" height="48" rx="8" fill="#fff" stroke="#64748b"/><text x="52" y="362" font-family="sans-serif" font-size="13">def-fol-structure</text><text x="52" y="380" font-family="sans-serif" font-size="11" fill="#586174">local not-run; global unverified</text></g></a><a href="../../workspace/foundations.qmd#def-fol-substitution"><g><title>def-fol-substitution: Capture-avoiding substitution (local: not-run; global: unverified)</title><rect x="490" y="420" width="360" height="48" rx="8" fill="#fff" stroke="#64748b"/><text x="502" y="440" font-family="sans-serif" font-size="13">def-fol-substitution</text><text x="502" y="458" font-family="sans-serif" font-size="11" fill="#586174">local not-run; global unverified</text></g></a><a href="../../workspace/foundations.qmd#def-fol-terms"><g><title>def-fol-terms: Terms and variables (local: not-run; global: unverified)</title><rect x="40" y="498" width="360" height="48" rx="8" fill="#fff" stroke="#64748b"/><text x="52" y="518" font-family="sans-serif" font-size="13">def-fol-terms</text><text x="52" y="536" font-family="sans-serif" font-size="11" fill="#586174">local not-run; global unverified</text></g></a><a href="../../workspace/semantics.qmd#def-henkin-theory"><g><title>def-henkin-theory: Henkin theory (local: not-run; global: unverified)</title><rect x="490" y="576" width="360" height="48" rx="8" fill="#fff" stroke="#64748b"/><text x="502" y="596" font-family="sans-serif" font-size="13">def-henkin-theory</text><text x="502" y="614" font-family="sans-serif" font-size="11" fill="#586174">local not-run; global unverified</text></g></a><a href="../../workspace/calculus.qmd#def-hilbert-calculus"><g><title>def-hilbert-calculus: Classical first-order proof calculus (local: not-run; global: unverified)</title><rect x="40" y="654" width="360" height="48" rx="8" fill="#fff" stroke="#64748b"/><text x="52" y="674" font-family="sans-serif" font-size="13">def-hilbert-calculus</text><text x="52" y="692" font-family="sans-serif" font-size="11" fill="#586174">local not-run; global unverified</text></g></a><a href="../../workspace/foundations.qmd#def-language-translation"><g><title>def-language-translation: Reduct translation (local: not-run; global: unverified)</title><rect x="490" y="732" width="360" height="48" rx="8" fill="#fff" stroke="#64748b"/><text x="502" y="752" font-family="sans-serif" font-size="13">def-language-translation</text><text x="502" y="770" font-family="sans-serif" font-size="11" fill="#586174">local not-run; global unverified</text></g></a><a href="../../workspace/semantics.qmd#def-satisfaction"><g><title>def-satisfaction: Satisfaction (local: not-run; global: unverified)</title><rect x="40" y="810" width="360" height="48" rx="8" fill="#fff" stroke="#64748b"/><text x="52" y="830" font-family="sans-serif" font-size="13">def-satisfaction</text><text x="52" y="848" font-family="sans-serif" font-size="11" fill="#586174">local not-run; global unverified</text></g></a><a href="../../workspace/semantics.qmd#def-term-value"><g><title>def-term-value: Value of a term (local: not-run; global: unverified)</title><rect x="490" y="888" width="360" height="48" rx="8" fill="#fff" stroke="#64748b"/><text x="502" y="908" font-family="sans-serif" font-size="13">def-term-value</text><text x="502" y="926" font-family="sans-serif" font-size="11" fill="#586174">local not-run; global unverified</text></g></a><a href="../../workspace/semantics.qmd#lem-canonical-truth"><g><title>lem-canonical-truth: Canonical truth lemma (local: not-run; global: unverified)</title><rect x="40" y="966" width="360" height="48" rx="8" fill="#fff" stroke="#64748b"/><text x="52" y="986" font-family="sans-serif" font-size="13">lem-canonical-truth</text><text x="52" y="1004" font-family="sans-serif" font-size="11" fill="#586174">local not-run; global unverified</text></g></a><a href="../../workspace/calculus.qmd#lem-chain-union-consistent"><g><title>lem-chain-union-consistent: Unions of consistency chains (local: not-run; global: unverified)</title><rect x="490" y="1044" width="360" height="48" rx="8" fill="#fff" stroke="#64748b"/><text x="502" y="1064" font-family="sans-serif" font-size="13">lem-chain-union-consistent</text><text x="502" y="1082" font-family="sans-serif" font-size="11" fill="#586174">local not-run; global unverified</text></g></a><a href="../../workspace/calculus.qmd#lem-complete-theory-boolean"><g><title>lem-complete-theory-boolean: Boolean laws in a complete theory (local: not-run; global: unverified)</title><rect x="40" y="1122" width="360" height="48" rx="8" fill="#fff" stroke="#64748b"/><text x="52" y="1142" font-family="sans-serif" font-size="13">lem-complete-theory-boolean</text><text x="52" y="1160" font-family="sans-serif" font-size="11" fill="#586174">local not-run; global unverified</text></g></a><a href="../../workspace/calculus.qmd#lem-consistency-characterizations"><g><title>lem-consistency-characterizations: Consistency characterizations (local: not-run; global: unverified)</title><rect x="490" y="1200" width="360" height="48" rx="8" fill="#fff" stroke="#64748b"/><text x="502" y="1220" font-family="sans-serif" font-size="13">lem-consistency-characterizations</text><text x="502" y="1238" font-family="sans-serif" font-size="11" fill="#586174">local not-run; global unverified</text></g></a><a href="../../workspace/calculus.qmd#lem-constant-elimination"><g><title>lem-constant-elimination: Elimination of fresh constants (local: not-run; global: unverified)</title><rect x="40" y="1278" width="360" height="48" rx="8" fill="#fff" stroke="#64748b"/><text x="52" y="1298" font-family="sans-serif" font-size="13">lem-constant-elimination</text><text x="52" y="1316" font-family="sans-serif" font-size="11" fill="#586174">local not-run; global unverified</text></g></a><a href="../../workspace/calculus.qmd#lem-deduction"><g><title>lem-deduction: Deduction theorem (local: not-run; global: unverified)</title><rect x="490" y="1356" width="360" height="48" rx="8" fill="#fff" stroke="#64748b"/><text x="502" y="1376" font-family="sans-serif" font-size="13">lem-deduction</text><text x="502" y="1394" font-family="sans-serif" font-size="11" fill="#586174">local not-run; global unverified</text></g></a><a href="../../workspace/semantics.qmd#lem-equality-congruence"><g><title>lem-equality-congruence: Provable equality is a congruence (local: not-run; global: unverified)</title><rect x="40" y="1434" width="360" height="48" rx="8" fill="#fff" stroke="#64748b"/><text x="52" y="1454" font-family="sans-serif" font-size="13">lem-equality-congruence</text><text x="52" y="1472" font-family="sans-serif" font-size="11" fill="#586174">local not-run; global unverified</text></g></a><a href="../../workspace/semantics.qmd#lem-existential-membership"><g><title>lem-existential-membership: Existential membership in a complete Henkin theory (local: not-run; global: unverified)</title><rect x="490" y="1512" width="360" height="48" rx="8" fill="#fff" stroke="#64748b"/><text x="502" y="1532" font-family="sans-serif" font-size="13">lem-existential-membership</text><text x="502" y="1550" font-family="sans-serif" font-size="11" fill="#586174">local not-run; global unverified</text></g></a><a href="../../workspace/foundations.qmd#lem-fresh-variable"><g><title>lem-fresh-variable: Fresh-variable lemma (local: not-run; global: unverified)</title><rect x="40" y="1590" width="360" height="48" rx="8" fill="#fff" stroke="#64748b"/><text x="52" y="1610" font-family="sans-serif" font-size="13">lem-fresh-variable</text><text x="52" y="1628" font-family="sans-serif" font-size="11" fill="#586174">local not-run; global unverified</text></g></a><a href="../../workspace/calculus.qmd#lem-henkin-witness-consistency"><g><title>lem-henkin-witness-consistency: Fresh witness preserves consistency (local: not-run; global: unverified)</title><rect x="490" y="1668" width="360" height="48" rx="8" fill="#fff" stroke="#64748b"/><text x="502" y="1688" font-family="sans-serif" font-size="13">lem-henkin-witness-consistency</text><text x="502" y="1706" font-family="sans-serif" font-size="11" fill="#586174">local not-run; global unverified</text></g></a><a href="../../workspace/henkin.qmd#lem-henkinization"><g><title>lem-henkinization: Consistent Henkinization (local: not-run; global: unverified)</title><rect x="40" y="1746" width="360" height="48" rx="8" fill="#fff" stroke="#64748b"/><text x="52" y="1766" font-family="sans-serif" font-size="13">lem-henkinization</text><text x="52" y="1784" font-family="sans-serif" font-size="11" fill="#586174">local not-run; global unverified</text></g></a><a href="../../workspace/calculus.qmd#lem-maximal-consistent"><g><title>lem-maximal-consistent: Maximal consistent extension (local: not-run; global: unverified)</title><rect x="490" y="1824" width="360" height="48" rx="8" fill="#fff" stroke="#64748b"/><text x="502" y="1844" font-family="sans-serif" font-size="13">lem-maximal-consistent</text><text x="502" y="1862" font-family="sans-serif" font-size="11" fill="#586174">local not-run; global unverified</text></g></a><a href="../../workspace/calculus.qmd#lem-proof-finitary"><g><title>lem-proof-finitary: Finitarity of derivability (local: not-run; global: unverified)</title><rect x="40" y="1902" width="360" height="48" rx="8" fill="#fff" stroke="#64748b"/><text x="52" y="1922" font-family="sans-serif" font-size="13">lem-proof-finitary</text><text x="52" y="1940" font-family="sans-serif" font-size="11" fill="#586174">local not-run; global unverified</text></g></a><a href="../../workspace/henkin.qmd#lem-pure-language-extension"><g><title>lem-pure-language-extension: Fresh symbols preserve consistency (local: not-run; global: unverified)</title><rect x="490" y="1980" width="360" height="48" rx="8" fill="#fff" stroke="#64748b"/><text x="502" y="2000" font-family="sans-serif" font-size="13">lem-pure-language-extension</text><text x="502" y="2018" font-family="sans-serif" font-size="11" fill="#586174">local not-run; global unverified</text></g></a><a href="../../workspace/semantics.qmd#lem-reduct-satisfaction"><g><title>lem-reduct-satisfaction: Reduct preserves old-language truth (local: not-run; global: unverified)</title><rect x="40" y="2058" width="360" height="48" rx="8" fill="#fff" stroke="#64748b"/><text x="52" y="2078" font-family="sans-serif" font-size="13">lem-reduct-satisfaction</text><text x="52" y="2096" font-family="sans-serif" font-size="11" fill="#586174">local not-run; global unverified</text></g></a><a href="../../workspace/semantics.qmd#lem-semantic-substitution"><g><title>lem-semantic-substitution: Semantic substitution lemma (local: not-run; global: unverified)</title><rect x="490" y="2136" width="360" height="48" rx="8" fill="#fff" stroke="#64748b"/><text x="502" y="2156" font-family="sans-serif" font-size="13">lem-semantic-substitution</text><text x="502" y="2174" font-family="sans-serif" font-size="11" fill="#586174">local not-run; global unverified</text></g></a><a href="../../workspace/foundations.qmd#lem-substitution-composition"><g><title>lem-substitution-composition: Substitution composition (local: not-run; global: unverified)</title><rect x="40" y="2214" width="360" height="48" rx="8" fill="#fff" stroke="#64748b"/><text x="52" y="2234" font-family="sans-serif" font-size="13">lem-substitution-composition</text><text x="52" y="2252" font-family="sans-serif" font-size="11" fill="#586174">local not-run; global unverified</text></g></a><a href="../../workspace/semantics.qmd#lem-term-model-evaluation"><g><title>lem-term-model-evaluation: Evaluation by closed representatives (local: not-run; global: unverified)</title><rect x="490" y="2292" width="360" height="48" rx="8" fill="#fff" stroke="#64748b"/><text x="502" y="2312" font-family="sans-serif" font-size="13">lem-term-model-evaluation</text><text x="502" y="2330" font-family="sans-serif" font-size="11" fill="#586174">local not-run; global unverified</text></g></a><a href="../../workspace/henkin.qmd#thm-consistent-model"><g><title>thm-consistent-model: Model existence for consistent theories (local: not-run; global: unverified)</title><rect x="40" y="2370" width="360" height="48" rx="8" fill="#fff" stroke="#64748b"/><text x="52" y="2390" font-family="sans-serif" font-size="13">thm-consistent-model</text><text x="52" y="2408" font-family="sans-serif" font-size="11" fill="#586174">local not-run; global unverified</text></g></a><a href="../../completeness.qmd#thm-main-godel-completeness"><g><title>thm-main-godel-completeness: Gödel completeness theorem (local: not-run; global: unverified)</title><rect x="490" y="2448" width="360" height="48" rx="8" fill="#fff" stroke="#64748b"/><text x="502" y="2468" font-family="sans-serif" font-size="13">thm-main-godel-completeness</text><text x="502" y="2486" font-family="sans-serif" font-size="11" fill="#586174">local not-run; global unverified</text></g></a></svg>
